<svg width="130" height="42" viewBox="0 0 130 42" fill="none" xmlns="http://www.w3.org/2000/svg">
<rect y="2" width="130" height="39" rx="19.5" fill="black"/>
<path d="M22.7241 37.509C18.7655 37.509 15.839 36.1659 13.9445 33.4797C12.0783 30.7934 11.1452 27.0328 11.1452 22.1976C11.1452 17.3624 12.0783 13.6017 13.9445 10.9155C15.839 8.22931 18.7655 6.88621 22.7241 6.88621C26.6828 6.88621 29.5952 8.22931 31.4614 10.9155C33.3559 13.6017 34.3031 17.3624 34.3031 22.1976C34.3031 27.0328 33.3559 30.7934 31.4614 33.4797C29.5952 36.1659 26.6828 37.509 22.7241 37.509ZM22.7241 32.3769C24.5338 32.3769 25.7779 31.7124 26.4566 30.3834C27.1634 29.0262 27.5169 27.1459 27.5169 24.7424V19.6103C27.5169 17.2352 27.1634 15.3831 26.4566 14.0541C25.7779 12.6969 24.5338 12.0183 22.7241 12.0183C20.9145 12.0183 19.6562 12.6969 18.9493 14.0541C18.2707 15.3831 17.9314 17.2352 17.9314 19.6103V24.7848C17.9314 27.16 18.2707 29.0262 18.9493 30.3834C19.6562 31.7124 20.9145 32.3769 22.7241 32.3769ZM40.2669 37H33.9896V7.39517H45.4414C46.8834 7.39517 48.17 7.62138 49.301 8.07379C50.4321 8.49793 51.3793 9.12 52.1427 9.94C52.9345 10.76 53.5283 11.7497 53.9241 12.909C54.32 14.0683 54.5179 15.369 54.5179 16.811C54.5179 18.9034 54.0655 20.699 53.1607 22.1976C52.2558 23.6962 50.9693 24.6859 49.301 25.1666L55.1117 37H48.1558L43.1934 26.0148H40.2669V37ZM43.9145 21.0948C45.4131 21.0948 46.4452 20.8121 47.0107 20.2466C47.6045 19.681 47.9014 18.7479 47.9014 17.4472V16.1748C47.9014 14.8741 47.6045 13.941 47.0107 13.3755C46.4452 12.81 45.4131 12.5272 43.9145 12.5272H40.2669V21.0948H43.9145ZM55.4344 37V7.39517H61.8389V31.7831H74.5631V37H55.4344ZM85.0227 37.509C81.0641 37.509 78.1375 36.1659 76.2431 33.4797C74.3768 30.7934 73.4437 27.0328 73.4437 22.1976C73.4437 17.3624 74.3768 13.6017 76.2431 10.9155C78.1375 8.22931 81.0641 6.88621 85.0227 6.88621C88.9813 6.88621 91.8937 8.22931 93.76 10.9155C95.6544 13.6017 96.6017 17.3624 96.6017 22.1976C96.6017 27.0328 95.6544 30.7934 93.76 33.4797C91.8937 36.1659 88.9813 37.509 85.0227 37.509ZM85.0227 32.3769C86.8324 32.3769 88.0765 31.7124 88.7551 30.3834C89.462 29.0262 89.8155 27.1459 89.8155 24.7424V19.6103C89.8155 17.2352 89.462 15.3831 88.7551 14.0541C88.0765 12.6969 86.8324 12.0183 85.0227 12.0183C83.2131 12.0183 81.9548 12.6969 81.2479 14.0541C80.5693 15.3831 80.23 17.2352 80.23 19.6103V24.7848C80.23 27.16 80.5693 29.0262 81.2479 30.3834C81.9548 31.7124 83.2131 32.3769 85.0227 32.3769ZM101.293 37L93.4465 7.39517H100.53L104.008 22.4521L105.746 30.9772H106.086L107.867 22.4521L111.388 7.39517H118.131L110.285 37H101.293Z" fill="#1BFF07"/>
</svg>
